<?xml version="1.0" encoding="UTF-8" standalone="no"?>
<!-- Generator: Adobe Illustrator 16.0.0, SVG Export Plug-In . SVG Version: 6.00 Build 0)  -->

<svg
   xmlns:dc="http://purl.org/dc/elements/1.1/"
   xmlns:cc="http://creativecommons.org/ns#"
   xmlns:rdf="http://www.w3.org/1999/02/22-rdf-syntax-ns#"
   xmlns:svg="http://www.w3.org/2000/svg"
   xmlns="http://www.w3.org/2000/svg"
   xmlns:sodipodi="http://sodipodi.sourceforge.net/DTD/sodipodi-0.dtd"
   xmlns:inkscape="http://www.inkscape.org/namespaces/inkscape"
   version="1.1"
   id="Capa_1"
   x="0px"
   y="0px"
   width="40px"
   height="40px"
   viewBox="0 0 40 40"
   style="enable-background:new 0 0 40 40;"
   xml:space="preserve"
   sodipodi:docname="ambulance.svg"
   inkscape:version="0.92.3 (2405546, 2018-03-11)"><metadata
   id="metadata940"><rdf:RDF><cc:Work
       rdf:about=""><dc:format>image/svg+xml</dc:format><dc:type
         rdf:resource="http://purl.org/dc/dcmitype/StillImage" /></cc:Work></rdf:RDF></metadata><defs
   id="defs938" /><sodipodi:namedview
   pagecolor="#ffffff"
   bordercolor="#666666"
   borderopacity="1"
   objecttolerance="10"
   gridtolerance="10"
   guidetolerance="10"
   inkscape:pageopacity="0"
   inkscape:pageshadow="2"
   inkscape:window-width="1853"
   inkscape:window-height="1025"
   id="namedview936"
   showgrid="false"
   inkscape:zoom="5.9"
   inkscape:cx="-7.4576271"
   inkscape:cy="20"
   inkscape:window-x="67"
   inkscape:window-y="27"
   inkscape:window-maximized="1"
   inkscape:current-layer="Capa_1" />
<g
   id="g903"
   style="fill:#97c845;fill-opacity:1">
	<path
   d="M39.357,17.986l-3.933-5c-0.567-0.723-1.438-1.146-2.356-1.146h-3.805v-1.75c0-1.657-1.343-3-3-3H3c-1.657,0-3,1.343-3,3   v17.529c0,1.533,1.156,2.783,2.642,2.963c0.831,1.387,2.333,2.328,4.063,2.328c1.716,0,3.208-0.926,4.043-2.291h18.504   c0.836,1.365,2.328,2.291,4.045,2.291c1.729,0,3.23-0.941,4.062-2.328C38.844,30.402,40,29.15,40,27.619V19.84   C40,19.167,39.773,18.516,39.357,17.986z M6.691,29.896c-0.959,0-1.737-0.775-1.737-1.736c0-0.959,0.778-1.736,1.737-1.736   s1.737,0.777,1.737,1.736C8.429,29.121,7.65,29.896,6.691,29.896z M20.785,18.919c0,0.829-0.67,1.5-1.5,1.5h-2.268v0.812v1.457   c0,0.83-0.671,1.5-1.5,1.5h-1.77c-0.829,0-1.5-0.67-1.5-1.5V21.23v-0.812H9.979c-0.829,0-1.5-0.671-1.5-1.5v-1.77   c0-0.828,0.671-1.5,1.5-1.5h2.268v-2.268c0-0.1,0.011-0.197,0.029-0.292c0.136-0.688,0.742-1.208,1.471-1.208h1.77   c0.729,0,1.335,0.52,1.471,1.208c0.019,0.095,0.029,0.192,0.029,0.292v2.268h2.268c0.828,0,1.5,0.672,1.5,1.5V18.919z    M33.297,29.896c-0.959,0-1.736-0.775-1.736-1.736c0-0.959,0.777-1.736,1.736-1.736s1.736,0.777,1.736,1.736   C35.033,29.121,34.256,29.896,33.297,29.896z M37,21.23h-7.734V14.84h3.803l3.933,5L37,21.23L37,21.23z"
   id="path901"
   style="fill:#97c845;fill-opacity:1" />
</g>
<g
   id="g905">
</g>
<g
   id="g907">
</g>
<g
   id="g909">
</g>
<g
   id="g911">
</g>
<g
   id="g913">
</g>
<g
   id="g915">
</g>
<g
   id="g917">
</g>
<g
   id="g919">
</g>
<g
   id="g921">
</g>
<g
   id="g923">
</g>
<g
   id="g925">
</g>
<g
   id="g927">
</g>
<g
   id="g929">
</g>
<g
   id="g931">
</g>
<g
   id="g933">
</g>
</svg>