<?xml version="1.0" encoding="UTF-8" standalone="no"?>
<svg
   xmlns:dc="http://purl.org/dc/elements/1.1/"
   xmlns:cc="http://creativecommons.org/ns#"
   xmlns:rdf="http://www.w3.org/1999/02/22-rdf-syntax-ns#"
   xmlns:svg="http://www.w3.org/2000/svg"
   xmlns="http://www.w3.org/2000/svg"
   xmlns:sodipodi="http://sodipodi.sourceforge.net/DTD/sodipodi-0.dtd"
   xmlns:inkscape="http://www.inkscape.org/namespaces/inkscape"
   version="1.1"
   x="0px"
   y="0px"
   viewBox="0 0 90.199997 80.228592"
   enable-background="new 0 0 100 100"
   xml:space="preserve"
   id="svg89"
   sodipodi:docname="checkmark.svg"
   width="90.199997"
   height="80.228592"
   inkscape:version="0.92.3 (2405546, 2018-03-11)"><metadata
     id="metadata95"><rdf:RDF><cc:Work
         rdf:about=""><dc:format>image/svg+xml</dc:format><dc:type
           rdf:resource="http://purl.org/dc/dcmitype/StillImage" /><dc:title></dc:title></cc:Work></rdf:RDF></metadata><defs
     id="defs93" /><sodipodi:namedview
     pagecolor="#ffffff"
     bordercolor="#666666"
     borderopacity="1"
     objecttolerance="10"
     gridtolerance="10"
     guidetolerance="10"
     inkscape:pageopacity="0"
     inkscape:pageshadow="2"
     inkscape:window-width="1853"
     inkscape:window-height="1025"
     id="namedview91"
     showgrid="false"
     fit-margin-top="0"
     fit-margin-left="0"
     fit-margin-right="0"
     fit-margin-bottom="0"
     inkscape:zoom="6.752"
     inkscape:cx="21.107109"
     inkscape:cy="37.885607"
     inkscape:window-x="67"
     inkscape:window-y="27"
     inkscape:window-maximized="1"
     inkscape:current-layer="svg89" /><path
     d="m 0,75.825 v -63.8 c 0,-2.5 2,-4.5 4.5,-4.5 h 47.1 9.5 l -9,9 H 51.6 9 v 54.8 h 54.8 v -9.8 -13.5 l 9,-9 v 22.4 14.3 c 0,2.5 -2,4.5 -4.5,4.5 H 4.5 C 2,80.325 0,78.325 0,75.825 Z m 39.1,-34.5 -9.6,-9.6 c -2.7,-2.7 -7.1,-2.7 -9.8,0 -1.3,1.3 -2,3 -2,4.9 0,1.8 0.7,3.6 2,4.9 l 14.5,14.5 c 2.7,2.7 7.1,2.7 9.8,0 l 44.2,-44.2 c 1.3,-1.3 2,-3 2,-4.9 0,-1.8 -0.7,-3.6 -2,-4.9 -2.7,-2.7 -7.1,-2.7 -9.8,0 z"
     id="path83"
     style="fill:#97c845;fill-opacity:1"
     inkscape:connector-curvature="0" /></svg>